PathFileType	4	(X/Y/Z)	C:/Users/beibeiliu/ov580/test_trc\sequence.19_training_dense_right.trc
DataRate	CameraRate	NumFrames	NumMarkers	Units	OrigDataRate	OrigDataStartFrame	OrigNumFrames
120	120	25	19	mm	120	1	85
Frame#	Time	ThumbCMC			ThumbMCP			ThumbIP			ThumbTip			IndexMCP			IndexPIP			IndexTip			MiddleMCP			MiddlePIP			MiddleTip			RingMCP			RingPIP			RingTip			PinkyMCP			PinkyPIP			PinkyTip			BackHand1			BackHand2			BackHand3	
		X0	Y0	Z0	X1	Y1	Z1	X2	Y2	Z2	X3	Y3	Z3	X4	Y4	Z4	X5	Y5	Z5	X6	Y6	Z6	X7	Y7	Z7	X8	Y8	Z8	X9	Y9	Z9	X10	Y10	Z10	X11	Y11	Z11	X12	Y12	Z12	X13	Y13	Z13	X14	Y14	Z14	X15	Y15	Z15	X16	Y16	Z16	X17	Y17	Z17	X18	Y18	Z18	
0	0	32.9195	46.7148	40.5271	12.9963	27.6403	22.2189	6.44467	18.3749	0.0603849	3.06353	9.90089	-18.2015	22.6846	54.8444	-25.9167	15.272	44.1635	-49.3386	6.22138	36.4161	-64.9173	45.6135	53.7637	-36.9826	37.4018	45.7442	-58.3674	36.4587	35.559	-82.6682	63.0926	49.5457	-34.6024	59.9884	42.9184	-56.373	59.4161	36.8879	-77.0755	82.6968	45.602	-25.4832	85.9028	41.7718	-42.4371	90.6925	42.3463	-57.2039	70.7721	64.6256	8.64509	75.6076	71.0617	35.213	48.4402	70.2976	27.5942	
1	0.00833333	30.9771	46.3041	36.3569	17.9338	28.959	22.878	9.08945	19.5106	-1.62046	2.02623	8.54015	-16.0538	24.4211	53.9553	-25.6629	15.0013	45.4274	-48.433	11.3451	35.0632	-68.5804	43.8084	54.2056	-34.8394	37.6277	44.6747	-61.5363	37.1764	35.6945	-84.2064	62.1036	50.33	-35.895	66.4906	43.7336	-53.6802	59.7578	37.3953	-76.1073	83.913	45.89	-23.8849	88.2815	42.3069	-43.1016	88.7894	41.9726	-60.9757	71.8508	64.0693	9.60255	76.7811	69.6383	35.6403	48.197	70.9249	25.2053	
2	0.0166667	31.0859	46.9903	40.6096	17.9109	30.3542	19.0085	8.00161	20.7262	-2.31243	5.16041	12.4473	-19.5465	25.3818	55.6204	-27.3796	15.8251	48.2882	-45.9101	13.2751	38.7845	-67.1216	43.5663	54.5669	-40.7533	38.1263	46.3122	-62.0532	37.9815	35.6607	-86.2957	65.834	51.5626	-35.962	62.9632	44.9781	-53.987	61.0268	37.0742	-75.6954	84.7221	48.773	-26.3611	88.6669	43.3748	-41.5709	89.6743	43.9274	-58.2357	73.0688	65.5028	7.68171	79.5034	71.0703	31.7816	51.0056	72.3122	25.503	
3	0.025	28.66	53.6806	33.3915	14.8181	36.2035	17.274	7.85679	27.5135	-8.33803	3.08837	16.9903	-25.1442	23.0553	65.0286	-29.2863	14.4494	55.6749	-54.3978	13.2497	46.5123	-73.5486	47.4806	63.3182	-43.6629	41.379	52.1299	-68.1611	40.1027	38.2623	-88.0126	63.3974	60.0142	-41.8065	62.5651	50.1976	-62.76	57.7333	38.9257	-79.4722	84.1649	56.5327	-29.4162	86.6557	51.4342	-44.1892	90.3127	50.0713	-66.7045	69.8083	74.8554	4.47693	78.0291	75.7023	31.2743	45.9992	78.3837	19.2753	
4	0.0333333	27.5602	59.3281	28.1805	16.7294	41.4916	11.5795	8.10314	32.4656	-11.1712	4.87516	22.3393	-30.425	24.322	72.4707	-36.7382	15.0627	65.7072	-55.6354	13.9708	53.892	-76.6173	43.9173	70.7922	-43.1821	39.396	54.5635	-70.5278	37.1486	36.6617	-86.3257	63.937	65.4718	-40.3991	58.7887	51.4967	-65.619	55.1462	33.9958	-80.2875	86.2147	62.4871	-30.3443	87.6257	58.3818	-53.0085	89.7273	54.1979	-71.3092	71.7012	79.8123	4.33804	81.2314	82.7086	27.6217	52.5782	83.8717	18.7842	
5	0.0416667	30.0587	61.8658	23.9283	21.3358	44.7334	7.10694	13.1856	35.529	-10.7726	7.94598	26.4255	-30.7082	24.4961	76.7727	-36.9492	21.7459	69.17	-61.4769	10.7756	56.6118	-80.903	48.2355	73.292	-46.1624	43.8746	54.9971	-69.8937	38.9756	28.5281	-76.4571	64.1099	67.5707	-45.9875	63.1415	50.5887	-64.5779	53.4522	28.8285	-68.2019	89.6811	66.6192	-35.7801	88.2943	63.5988	-52.119	92.5998	57.2322	-75.6535	77.4125	82.3727	-1.17577	79.87	84.555	23.6754	53.4588	87.4583	13.0715	
6	0.05	33.7802	63.6443	21.6557	19.7294	45.7388	5.48669	10.5943	36.1015	-16.4959	7.39502	25.8065	-34.0263	28.3367	79.9245	-40.0526	19.8477	72.1754	-63.6658	20.1102	59.5841	-83.4118	47.0989	73.2045	-48.9032	43.4778	48.744	-66.7051	42.4214	19.2624	-57.6993	69.4613	66.8315	-48.5486	64.0144	44.1385	-61.3609	56.0442	21.4307	-52.9014	88.6673	69.5744	-34.6335	93.4317	63.6626	-56.3605	92.684	57.1063	-77.8736	76.1219	85.9389	0.552829	79.3846	86.189	24.7803	52.8829	89.2786	12.3255	
7	0.0583333	33.6694	63.9464	23.3953	21.7481	45.7269	1.87729	14.7314	35.8248	-19.0153	11.4943	25.6419	-39.5825	28.602	82.9936	-42.566	26.0833	74.0697	-67.9512	21.1221	64.2781	-88.7367	50.1352	68.0224	-51.2511	44.8805	39.766	-59.3264	46.8561	18.0208	-33.1035	69.9554	61.6656	-49.3644	63.378	35.7392	-53.4555	52.9712	22.2767	-34.3283	89.9411	70.2519	-35.1649	91.3499	66.0618	-54.6088	94.7699	60.3622	-77.0906	75.9018	88.2013	-5.44535	81.3598	87.5977	24.8304	52.2692	91.3607	13.8708	
8	0.0666667	35.7681	64.1234	16.0881	22.9026	43.6414	-0.864362	20.2328	34.3399	-21.1889	19.2398	22.5672	-41.8841	32.0126	84.3192	-44.9314	27.0136	81.3146	-67.6109	25.449	75.9806	-86.7255	51.4979	66.1824	-50.7098	45.7201	34.2936	-51.9018	45.0469	24.3901	-27.0325	67.29	61.879	-46.3411	59.9722	35.2652	-48.0734	54.4451	25.3466	-19.6792	91.3618	69.2587	-38.271	89.9964	64.9363	-57.8743	96.3072	60.6892	-74.3721	81.031	86.808	-5.82052	84.301	85.9043	20.1875	56.3844	89.6782	12.6789	
9	0.075	32.8256	63.7918	20.0266	22.9568	41.5261	-3.12082	21.3559	31.7552	-23.4751	27.4842	20.7815	-46.5367	34.0091	86.1912	-45.2116	26.017	84.7158	-63.9785	24.7197	82.2165	-89.6077	47.1088	64.2882	-52.7019	44.5778	33.7517	-49.4566	43.5815	28.3801	-21.5582	67.3317	60.0152	-46.5633	58.0101	34.3682	-45.3901	53.2556	29.1454	-17.4155	92.6073	68.5851	-39.168	90.6453	65.9393	-57.3519	92.2183	66.8694	-75.478	75.57	84.4599	-3.40629	83.022	85.0189	18.4092	57.669	91.1362	12.3543	
10	0.0833333	34.0901	64.9339	15.9423	20.8416	40.9014	-6.22782	21.8164	28.1974	-26.551	36.1317	19.8443	-46.8401	31.4733	87.4139	-41.4143	25.4361	87.5207	-67.9945	28.0688	87.5389	-87.0135	49.0434	64.0099	-52.2693	46.8288	35.4532	-52.437	45.8775	32.1658	-20.3757	67.019	57.0466	-49.3712	58.403	33.1148	-44.9388	53.6764	30.3361	-17.0512	92.1051	68.5413	-39.4495	89.7912	67.5057	-57.0493	93.6085	70.3865	-77.7612	75.2219	85.2374	-2.41791	81.4427	87.1232	22.086	55.3773	89.2414	11.9382	
11	0.0916667	32.7581	63.693	20.0982	25.3049	42.9858	-4.00273	25.7051	28.9812	-29.8034	40.7039	19.24	-48.3098	29.1446	88.2014	-43.6449	27.6795	89.2432	-67.2256	25.4358	90.2543	-89.2717	46.6391	67.7611	-50.1963	44.9223	35.8112	-51.8974	42.502	33.4674	-20.3876	66.2647	59.4278	-49.5643	59.5251	34.1829	-45.7568	53.0588	32.8918	-16.683	87.06	72.1054	-42.2335	91.4874	70.6301	-59.3297	96.1574	73.0456	-75.1151	75.7998	86.4433	-7.82761	79.7159	87.1214	20.3779	49.9658	90.5672	8.47983	
12	0.1	30.2728	63.5101	19.252	24.5922	42.3007	-4.72218	26.5184	29.9632	-24.9201	40.2568	21.1144	-45.0548	28.7765	90.6658	-45.0417	28.5288	90.5239	-66.5664	23.3459	91.7968	-84.4668	45.9055	66.2698	-54.3131	47.2832	36.3435	-50.7331	45.9156	34.8384	-21.6972	65.2762	60.207	-50.1848	60.4123	33.0973	-44.7143	51.7348	32.6535	-18.5259	90.3871	73.9733	-40.5033	90.5612	73.5811	-56.8289	94.6551	77.5754	-73.9473	74.2974	88.9425	-5.47679	79.0419	86.6377	20.1136	50.9734	92.5219	12.6013	
13	0.108333	34.7785	63.0077	16.2664	25.4823	39.7913	-5.45176	29.3252	30.3851	-26.6828	41.9855	19.9667	-43.9901	33.6219	87.6403	-42.0789	30.9213	89.7009	-65.8398	25.9948	92.0086	-89.5506	52.8157	68.3772	-51.4301	48.3139	38.363	-55.2819	47.4303	34.1486	-20.657	69.0835	58.7503	-50.8548	57.4317	36.8426	-47.4309	55.1708	29.3462	-22.7434	92.7551	72.6644	-35.8074	94.2655	73.3676	-56.9033	94.9856	78.4039	-69.9484	75.1552	86.333	-1.75397	79.8007	86.0482	19.7664	51.0177	91.2661	13.4034	
14	0.116667	34.5759	59.3305	17.3884	24.608	34.9815	-3.24586	31.0054	26.4635	-26.079	48.9211	18.1932	-47.2265	32.3815	86.3226	-44.4126	32.1516	85.6678	-67.2113	26.6403	87.8496	-85.7109	49.5787	65.2161	-51.0392	50.1789	36.9669	-55.7084	47.2768	30.9371	-22.1364	71.7251	57.585	-48.7843	60.7999	30.8503	-45.6437	55.4422	28.8398	-18.4799	92.5198	69.8591	-34.8342	98.1772	71.1567	-51.1783	100.07	77.9664	-71.205	79.6843	82.8113	-2.71957	79.8385	83.779	23.1872	52.8447	86.7797	10.441	
15	0.125	34.6037	57.5226	17.8966	28.9179	33.9311	-3.39723	32.5322	23.1768	-25.2716	49.2948	16.0192	-43.2663	33.6813	83.2703	-42.8392	30.8308	82.4567	-66.2581	27.2202	85.0867	-84.9104	52.2838	61.7156	-52.0597	47.106	33.1006	-52.4369	46.9363	27.453	-23.4401	68.8636	56.7432	-48.6606	66.8115	30.584	-48.9926	59.6077	24.7312	-19.6657	95.1882	68.29	-34.2067	99.2011	69.273	-50.6266	101.89	76.6753	-68.0029	83.1952	81.4879	-0.906616	85.5133	82.1666	21.3613	55.9849	84.1935	14.643	
16	0.133333	40.5231	56.9831	18.052	30.9967	32.9098	-5.78816	39.6607	25.1648	-29.4207	56.1812	16.9393	-45.5498	36.2221	83.3291	-43.9103	32.1505	83.0903	-64.8047	33.5575	85.529	-87.5992	54.9463	65.6187	-50.2217	51.4036	35.9423	-55.536	55.4491	27.5873	-25.1673	73.5057	60.6239	-45.2706	66.9137	31.6996	-47.7428	61.0089	26.2919	-20.3703	98.0715	69.473	-31.1624	100.343	72.2818	-53.0632	104.518	80.4718	-68.3574	83.1803	82.4116	0.449641	87.403	82.2244	25.4685	58.9236	83.6083	15.4818	
17	0.141667	39.2515	57.3813	14.3258	38.7555	35.2129	-11.1009	42.7028	24.1048	-30.5424	60.1748	19.6613	-47.6752	40.3273	85.8473	-45.8914	37.7289	86.3086	-67.0816	36.0037	87.6651	-86.9945	60.536	66.8832	-54.0359	59.0223	37.3632	-56.008	55.7434	30.5841	-26.5652	75.0671	64.2412	-49.5789	73.6622	34.7313	-48.7841	65.275	30.2255	-25.5491	98.1356	77.6772	-35.7234	103.49	80.4914	-53.131	110.456	89.2804	-63.7389	84.5467	86.933	-0.655281	86.7523	85.6698	26.8084	55.6745	85.7494	14.4969	
18	0.15	39.6957	56.6973	14.5947	43.0409	35.4802	-14.9407	49.8058	24.6133	-33.9002	70.1943	22.2673	-53.0511	38.5761	86.6085	-46.3901	39.3656	87.8934	-67.7232	40.6793	91.0444	-92.7477	61.1966	71.0165	-57.5735	67.1702	44.6925	-61.6587	67.1876	34.7822	-28.4276	84.0994	71.9202	-49.0049	80.256	44.3073	-55.1739	72.9797	34.5026	-27.8685	100.08	84.7454	-32.865	104.842	90.3085	-53.7401	110.893	97.0572	-63.4719	79.3283	92.1865	-3.51588	81.724	88.8348	22.9411	57.0426	89.7166	10.8111	
19	0.158333	42.7107	60.4305	8.2047	49.6523	39.3144	-16.802	58.3793	29.0795	-33.2218	78.5151	24.3846	-51.163	43.9797	85.1421	-49.1823	43.5196	85.553	-73.4523	42.0519	85.6796	-94.2031	72.0527	72.1374	-59.2707	74.4807	43.6817	-60.5843	70.7461	36.4114	-28.5176	88.2706	71.1745	-53.8987	84.3302	44.6473	-54.0836	78.3004	37.8401	-25.77	102.315	87.6337	-34.1094	109.635	92.2771	-51.9461	112.411	102.672	-69.4313	80.6011	96.7199	-8.36129	83.4944	96.9714	17.5943	58.8193	93.5371	8.56515	
20	0.166667	47.7624	66.6153	6.10983	49.1575	40.7165	-10.5473	58.2124	24.3232	-30.478	81.2341	24.1302	-42.6718	54.0255	82.4027	-54.8384	49.4618	77.5101	-76.8116	50.7167	73.5092	-98.01	73.2496	69.8404	-57.1225	78.2763	39.3596	-59.7073	69.2258	35.1134	-24.5282	91.9933	66.2878	-52.632	87.6655	38.8407	-48.3513	83.9821	34.9557	-23.2376	112.669	84.6571	-35.7228	118.199	84.1229	-50.9619	125.169	89.5526	-69.0742	90.8282	98.5232	-6.54265	88.9001	102.147	17.4764	58.396	96.1786	-0.639094	
21	0.175	47.2044	72.58	6.66225	49.198	43.0139	-7.43354	53.9709	22.6382	-21.7246	74.0295	13.0045	-29.8126	58.4076	72.4191	-58.5639	55.6003	64.9539	-74.2438	57.0618	52.704	-98.5764	78.1375	55.8377	-54.9781	71.6227	26.6248	-47.4698	67.4818	31.393	-15.9385	97.023	50.6706	-47.127	88.4546	28.7284	-39.1075	79.392	30.2884	-11.908	117.769	68.9115	-35.9936	121.727	62.7603	-51.1382	129.15	60.4003	-68.3183	92.697	93.5503	-8.7134	94.2835	100.246	14.382	70.1179	99.3432	-1.13709	
22	0.183333	52.7168	76.1838	8.02203	45.7319	46.5784	2.26583	49.4625	22.0271	-12.295	66.9148	5.46345	-16.4643	62.5219	59.9818	-55.3974	59.9318	44.6687	-70.8228	59.6276	30.7099	-86.7592	81.7782	42.0632	-44.8852	70.4783	15.1282	-35.1676	62.9229	29.1407	-4.47702	97.2923	35.7842	-35.1568	80.6491	14.8465	-24.7821	73.8623	25.9007	1.65916	116.774	47.377	-30.2191	124	34.7446	-40.7215	124.286	23.3394	-59.8656	101.825	80.1231	-13.0723	101.886	93.6778	14.498	79.2561	92.3423	-6.38781	
23	0.191667	58.9738	78.6359	11.1575	46.2086	48.0468	8.02922	45.6748	26.0376	1.81625	53.7018	-0.247632	-1.37155	69.0993	48.9922	-46.3211	58.8144	31.767	-63.3986	57.1745	13.4569	-73.4233	77.5188	30.0805	-37.4272	62.6858	6.90908	-21.9976	58.5258	23.6803	4.60531	91.4072	19.4671	-24.5846	73.1811	5.48646	-6.48451	67.5466	28.5899	11.4082	117.214	27.0546	-20.5062	116.423	13.3003	-30.5162	109.246	-10.0494	-38.0786	109.937	63.0153	-9.49951	114.954	83.648	12.46	90.7028	86.6808	-4.3228	
24	0.2	73.4311	78.2156	9.31022	51.9398	54.8105	12.3529	39.5907	33.5936	11.8455	45.6595	4.59098	11.8372	67.8902	37.8076	-41.8209	57.6993	21.577	-52.1602	46.5747	2.93038	-60.175	76.3964	18.7751	-25.2351	53.1695	6.65677	-8.97558	57.5642	30.9094	15.418	81.4862	9.23172	-14.6459	64.7486	5.60028	5.77322	65.9008	26.7433	20.9045	110.843	11.2761	-8.37875	99.5288	-10.3759	-16.0523	85.836	-22.7595	-11.6388	115.682	50.4921	-7.55573	126.898	70.9085	12.7218	100.971	78.1258	-5.21129	
